<?xml version="1.0" encoding="utf-8"?>
<svg viewBox="0 0 500 500" xmlns="http://www.w3.org/2000/svg">
  <g transform="matrix(1.5374640226364136, 0, 0, 1.5374640226364136, -142.8764974903538, -136.9295979876756)" >
    <path  d="M 174.425 277.7 C 174.425 277.7 197.096 251.898 256.332 252.021 C 315.568 252.144 337.632 277.7 337.632 277.7 L 393.498 251.782 L 256.12 188.198 L 117.573 251.782 L 140.269 262.304 L 140.171 278.966 C 140.171 278.966 134.325 280.037 134.325 285.104 C 134.325 290.171 136.664 293.094 136.664 293.094 L 128.771 309.404 L 155.956 309.306 L 148.259 292.742 C 148.259 292.742 153.13 287.773 149.136 282.998 C 145.142 278.223 145.725 279.393 145.725 279.393 L 145.725 264.972 L 174.425 277.7 Z"/>
    <path  d="M 180.973 315.137 L 330.888 315.137 L 330.888 288.91 C 330.888 288.91 304.959 266.556 257.421 265.364 C 209.883 264.172 180.824 288.91 180.824 288.91 L 180.973 315.137 Z"/>
  </g>
</svg>