<svg width="500" height="500" xmlns="http://www.w3.org/2000/svg">

 <g>
  <title>Layer 1</title>
  <g id="svg_1" transform="matrix(1.53746 0 0 1.53746 -142.876 -136.93)">
   <path fill="#3b82f6" id="svg_2" d="m174.425,277.7c0,0 22.671,-25.802 81.907,-25.679c59.236,0.123 81.3,25.679 81.3,25.679l55.866,-25.918l-137.378,-63.584l-138.547,63.584l22.696,10.522l-0.098,16.662c0,0 -5.846,1.071 -5.846,6.138c0,5.067 2.339,7.99 2.339,7.99l-7.893,16.31l27.185,-0.098l-7.697,-16.564c0,0 4.871,-4.969 0.877,-9.744c-3.994,-4.775 -3.411,-3.605 -3.411,-3.605l0,-14.421l28.7,12.728z"/>
   <path fill="#3b82f6" id="svg_3" d="m180.973,315.137l149.915,0l0,-26.227c0,0 -25.929,-22.354 -73.467,-23.546c-47.538,-1.192 -76.597,23.546 -76.597,23.546l0.149,26.227z"/>
  </g>
 </g>
</svg>